<mxfile host="Electron" agent="Mozilla/5.0 (Windows NT 10.0; Win64; x64) AppleWebKit/537.36 (KHTML, like Gecko) draw.io/24.7.17 Chrome/128.0.6613.36 Electron/32.0.1 Safari/537.36" version="24.7.17">
  <diagram name="PÃ¡gina-1" id="JCyGcnep3O-EMk3rGgId">
    <mxGraphModel dx="2427" dy="967" grid="1" gridSize="10" guides="1" tooltips="1" connect="1" arrows="1" fold="1" page="1" pageScale="1" pageWidth="827" pageHeight="1169" math="0" shadow="0">
      <root>
        <mxCell id="0" />
        <mxCell id="1" parent="0" />
        <mxCell id="SfsohykQEMwazT2AkdBh-1" value="Persona" style="rounded=0;whiteSpace=wrap;html=1;" vertex="1" parent="1">
          <mxGeometry x="320" y="80" width="120" height="60" as="geometry" />
        </mxCell>
        <mxCell id="SfsohykQEMwazT2AkdBh-5" style="edgeStyle=orthogonalEdgeStyle;rounded=0;orthogonalLoop=1;jettySize=auto;html=1;" edge="1" parent="1" source="SfsohykQEMwazT2AkdBh-3" target="SfsohykQEMwazT2AkdBh-1">
          <mxGeometry relative="1" as="geometry">
            <Array as="points">
              <mxPoint x="220" y="180" />
              <mxPoint x="380" y="180" />
            </Array>
          </mxGeometry>
        </mxCell>
        <mxCell id="SfsohykQEMwazT2AkdBh-8" value="" style="edgeStyle=orthogonalEdgeStyle;rounded=0;orthogonalLoop=1;jettySize=auto;html=1;" edge="1" parent="1" source="SfsohykQEMwazT2AkdBh-3" target="SfsohykQEMwazT2AkdBh-7">
          <mxGeometry relative="1" as="geometry" />
        </mxCell>
        <mxCell id="SfsohykQEMwazT2AkdBh-12" value="" style="edgeStyle=orthogonalEdgeStyle;rounded=0;orthogonalLoop=1;jettySize=auto;html=1;" edge="1" parent="1" source="SfsohykQEMwazT2AkdBh-3" target="SfsohykQEMwazT2AkdBh-11">
          <mxGeometry relative="1" as="geometry" />
        </mxCell>
        <mxCell id="SfsohykQEMwazT2AkdBh-3" value="Empleado" style="whiteSpace=wrap;html=1;" vertex="1" parent="1">
          <mxGeometry x="160" y="200" width="120" height="60" as="geometry" />
        </mxCell>
        <mxCell id="SfsohykQEMwazT2AkdBh-6" style="edgeStyle=orthogonalEdgeStyle;rounded=0;orthogonalLoop=1;jettySize=auto;html=1;" edge="1" parent="1" source="SfsohykQEMwazT2AkdBh-4" target="SfsohykQEMwazT2AkdBh-1">
          <mxGeometry relative="1" as="geometry">
            <Array as="points">
              <mxPoint x="540" y="180" />
              <mxPoint x="380" y="180" />
            </Array>
          </mxGeometry>
        </mxCell>
        <mxCell id="SfsohykQEMwazT2AkdBh-35" value="" style="edgeStyle=orthogonalEdgeStyle;rounded=0;orthogonalLoop=1;jettySize=auto;html=1;" edge="1" parent="1" source="SfsohykQEMwazT2AkdBh-4" target="SfsohykQEMwazT2AkdBh-34">
          <mxGeometry relative="1" as="geometry" />
        </mxCell>
        <mxCell id="SfsohykQEMwazT2AkdBh-38" value="" style="edgeStyle=orthogonalEdgeStyle;rounded=0;orthogonalLoop=1;jettySize=auto;html=1;" edge="1" parent="1" source="SfsohykQEMwazT2AkdBh-4" target="SfsohykQEMwazT2AkdBh-37">
          <mxGeometry relative="1" as="geometry">
            <Array as="points">
              <mxPoint x="580" y="295" />
              <mxPoint x="628" y="295" />
            </Array>
          </mxGeometry>
        </mxCell>
        <mxCell id="SfsohykQEMwazT2AkdBh-41" value="" style="edgeStyle=orthogonalEdgeStyle;rounded=0;orthogonalLoop=1;jettySize=auto;html=1;" edge="1" parent="1" source="SfsohykQEMwazT2AkdBh-4" target="SfsohykQEMwazT2AkdBh-40">
          <mxGeometry relative="1" as="geometry" />
        </mxCell>
        <mxCell id="SfsohykQEMwazT2AkdBh-4" value="Medico" style="whiteSpace=wrap;html=1;" vertex="1" parent="1">
          <mxGeometry x="480" y="200" width="120" height="60" as="geometry" />
        </mxCell>
        <mxCell id="SfsohykQEMwazT2AkdBh-10" value="" style="edgeStyle=orthogonalEdgeStyle;rounded=0;orthogonalLoop=1;jettySize=auto;html=1;" edge="1" parent="1" source="SfsohykQEMwazT2AkdBh-7" target="SfsohykQEMwazT2AkdBh-9">
          <mxGeometry relative="1" as="geometry" />
        </mxCell>
        <mxCell id="SfsohykQEMwazT2AkdBh-49" style="edgeStyle=orthogonalEdgeStyle;rounded=0;orthogonalLoop=1;jettySize=auto;html=1;endArrow=oval;endFill=0;" edge="1" parent="1" source="SfsohykQEMwazT2AkdBh-7">
          <mxGeometry relative="1" as="geometry">
            <mxPoint x="20" y="170" as="targetPoint" />
          </mxGeometry>
        </mxCell>
        <mxCell id="SfsohykQEMwazT2AkdBh-7" value="trabaja" style="rhombus;whiteSpace=wrap;html=1;" vertex="1" parent="1">
          <mxGeometry x="-20" y="190" width="80" height="80" as="geometry" />
        </mxCell>
        <mxCell id="SfsohykQEMwazT2AkdBh-90" style="edgeStyle=orthogonalEdgeStyle;rounded=0;orthogonalLoop=1;jettySize=auto;html=1;" edge="1" parent="1" source="SfsohykQEMwazT2AkdBh-9" target="SfsohykQEMwazT2AkdBh-88">
          <mxGeometry relative="1" as="geometry">
            <Array as="points">
              <mxPoint x="-20" y="430" />
              <mxPoint x="-45" y="430" />
            </Array>
          </mxGeometry>
        </mxCell>
        <mxCell id="SfsohykQEMwazT2AkdBh-9" value="Dependencia" style="whiteSpace=wrap;html=1;" vertex="1" parent="1">
          <mxGeometry x="-41" y="459" width="120" height="60" as="geometry" />
        </mxCell>
        <mxCell id="SfsohykQEMwazT2AkdBh-14" value="" style="edgeStyle=orthogonalEdgeStyle;rounded=0;orthogonalLoop=1;jettySize=auto;html=1;" edge="1" parent="1" source="SfsohykQEMwazT2AkdBh-11" target="SfsohykQEMwazT2AkdBh-13">
          <mxGeometry relative="1" as="geometry" />
        </mxCell>
        <mxCell id="SfsohykQEMwazT2AkdBh-11" value="solicita" style="rhombus;whiteSpace=wrap;html=1;" vertex="1" parent="1">
          <mxGeometry x="180" y="430" width="80" height="80" as="geometry" />
        </mxCell>
        <mxCell id="SfsohykQEMwazT2AkdBh-19" value="" style="edgeStyle=orthogonalEdgeStyle;rounded=0;orthogonalLoop=1;jettySize=auto;html=1;" edge="1" parent="1" target="SfsohykQEMwazT2AkdBh-18">
          <mxGeometry relative="1" as="geometry">
            <mxPoint x="430" y="500" as="sourcePoint" />
          </mxGeometry>
        </mxCell>
        <mxCell id="SfsohykQEMwazT2AkdBh-31" value="" style="edgeStyle=orthogonalEdgeStyle;rounded=0;orthogonalLoop=1;jettySize=auto;html=1;" edge="1" parent="1" source="SfsohykQEMwazT2AkdBh-13" target="SfsohykQEMwazT2AkdBh-30">
          <mxGeometry relative="1" as="geometry" />
        </mxCell>
        <mxCell id="SfsohykQEMwazT2AkdBh-91" style="edgeStyle=orthogonalEdgeStyle;rounded=0;orthogonalLoop=1;jettySize=auto;html=1;endArrow=oval;endFill=0;" edge="1" parent="1" source="SfsohykQEMwazT2AkdBh-13">
          <mxGeometry relative="1" as="geometry">
            <mxPoint x="380" y="410" as="targetPoint" />
          </mxGeometry>
        </mxCell>
        <mxCell id="SfsohykQEMwazT2AkdBh-13" value="Licencia" style="whiteSpace=wrap;html=1;" vertex="1" parent="1">
          <mxGeometry x="320" y="440" width="120" height="60" as="geometry" />
        </mxCell>
        <mxCell id="SfsohykQEMwazT2AkdBh-17" value="" style="edgeStyle=orthogonalEdgeStyle;rounded=0;orthogonalLoop=1;jettySize=auto;html=1;" edge="1" parent="1" source="SfsohykQEMwazT2AkdBh-15">
          <mxGeometry relative="1" as="geometry">
            <mxPoint x="440" y="450" as="targetPoint" />
            <Array as="points">
              <mxPoint x="450" y="370" />
              <mxPoint x="450" y="450" />
            </Array>
          </mxGeometry>
        </mxCell>
        <mxCell id="SfsohykQEMwazT2AkdBh-33" style="edgeStyle=orthogonalEdgeStyle;rounded=0;orthogonalLoop=1;jettySize=auto;html=1;" edge="1" parent="1" source="SfsohykQEMwazT2AkdBh-15" target="SfsohykQEMwazT2AkdBh-4">
          <mxGeometry relative="1" as="geometry">
            <Array as="points">
              <mxPoint x="500" y="290" />
              <mxPoint x="500" y="290" />
            </Array>
          </mxGeometry>
        </mxCell>
        <mxCell id="SfsohykQEMwazT2AkdBh-15" value="audita" style="rhombus;whiteSpace=wrap;html=1;" vertex="1" parent="1">
          <mxGeometry x="470" y="340" width="60" height="60" as="geometry" />
        </mxCell>
        <mxCell id="SfsohykQEMwazT2AkdBh-21" value="" style="edgeStyle=orthogonalEdgeStyle;rounded=0;orthogonalLoop=1;jettySize=auto;html=1;" edge="1" parent="1" source="SfsohykQEMwazT2AkdBh-18" target="SfsohykQEMwazT2AkdBh-20">
          <mxGeometry relative="1" as="geometry" />
        </mxCell>
        <mxCell id="SfsohykQEMwazT2AkdBh-18" value="tiene" style="rhombus;whiteSpace=wrap;html=1;" vertex="1" parent="1">
          <mxGeometry x="400" y="585" width="60" height="50" as="geometry" />
        </mxCell>
        <mxCell id="SfsohykQEMwazT2AkdBh-95" style="edgeStyle=orthogonalEdgeStyle;rounded=0;orthogonalLoop=1;jettySize=auto;html=1;endArrow=oval;endFill=1;" edge="1" parent="1" source="SfsohykQEMwazT2AkdBh-20">
          <mxGeometry relative="1" as="geometry">
            <mxPoint x="660" y="610" as="targetPoint" />
          </mxGeometry>
        </mxCell>
        <mxCell id="SfsohykQEMwazT2AkdBh-20" value="TipoLicencia" style="whiteSpace=wrap;html=1;" vertex="1" parent="1">
          <mxGeometry x="520" y="580" width="120" height="60" as="geometry" />
        </mxCell>
        <mxCell id="SfsohykQEMwazT2AkdBh-25" value="" style="edgeStyle=orthogonalEdgeStyle;rounded=0;orthogonalLoop=1;jettySize=auto;html=1;" edge="1" parent="1" target="SfsohykQEMwazT2AkdBh-26">
          <mxGeometry relative="1" as="geometry">
            <mxPoint x="340" y="500" as="sourcePoint" />
          </mxGeometry>
        </mxCell>
        <mxCell id="SfsohykQEMwazT2AkdBh-28" value="" style="edgeStyle=orthogonalEdgeStyle;rounded=0;orthogonalLoop=1;jettySize=auto;html=1;" edge="1" parent="1" source="SfsohykQEMwazT2AkdBh-26" target="SfsohykQEMwazT2AkdBh-27">
          <mxGeometry relative="1" as="geometry" />
        </mxCell>
        <mxCell id="SfsohykQEMwazT2AkdBh-26" value="tiene2" style="rhombus;whiteSpace=wrap;html=1;" vertex="1" parent="1">
          <mxGeometry x="310" y="585" width="60" height="50" as="geometry" />
        </mxCell>
        <mxCell id="SfsohykQEMwazT2AkdBh-63" style="edgeStyle=orthogonalEdgeStyle;rounded=0;orthogonalLoop=1;jettySize=auto;html=1;endArrow=oval;endFill=1;" edge="1" parent="1" source="SfsohykQEMwazT2AkdBh-27">
          <mxGeometry relative="1" as="geometry">
            <mxPoint x="200" y="660" as="targetPoint" />
          </mxGeometry>
        </mxCell>
        <mxCell id="SfsohykQEMwazT2AkdBh-27" value="Estado" style="whiteSpace=wrap;html=1;" vertex="1" parent="1">
          <mxGeometry x="140" y="580" width="120" height="60" as="geometry" />
        </mxCell>
        <mxCell id="SfsohykQEMwazT2AkdBh-29" value="Diagnostico" style="whiteSpace=wrap;html=1;" vertex="1" parent="1">
          <mxGeometry x="320" y="740" width="120" height="60" as="geometry" />
        </mxCell>
        <mxCell id="SfsohykQEMwazT2AkdBh-32" value="" style="edgeStyle=orthogonalEdgeStyle;rounded=0;orthogonalLoop=1;jettySize=auto;html=1;" edge="1" parent="1" source="SfsohykQEMwazT2AkdBh-30" target="SfsohykQEMwazT2AkdBh-29">
          <mxGeometry relative="1" as="geometry" />
        </mxCell>
        <mxCell id="SfsohykQEMwazT2AkdBh-30" value="tiene3" style="rhombus;whiteSpace=wrap;html=1;" vertex="1" parent="1">
          <mxGeometry x="350" y="640" width="60" height="50" as="geometry" />
        </mxCell>
        <mxCell id="SfsohykQEMwazT2AkdBh-34" value="aprueba" style="rhombus;whiteSpace=wrap;html=1;" vertex="1" parent="1">
          <mxGeometry x="530" y="390" width="60" height="60" as="geometry" />
        </mxCell>
        <mxCell id="SfsohykQEMwazT2AkdBh-36" style="edgeStyle=orthogonalEdgeStyle;rounded=0;orthogonalLoop=1;jettySize=auto;html=1;" edge="1" parent="1" source="SfsohykQEMwazT2AkdBh-34" target="SfsohykQEMwazT2AkdBh-13">
          <mxGeometry relative="1" as="geometry">
            <Array as="points">
              <mxPoint x="485" y="420" />
              <mxPoint x="485" y="470" />
            </Array>
          </mxGeometry>
        </mxCell>
        <mxCell id="SfsohykQEMwazT2AkdBh-39" style="edgeStyle=orthogonalEdgeStyle;rounded=0;orthogonalLoop=1;jettySize=auto;html=1;" edge="1" parent="1" source="SfsohykQEMwazT2AkdBh-37" target="SfsohykQEMwazT2AkdBh-13">
          <mxGeometry relative="1" as="geometry">
            <Array as="points">
              <mxPoint x="628" y="490" />
            </Array>
          </mxGeometry>
        </mxCell>
        <mxCell id="SfsohykQEMwazT2AkdBh-113" style="edgeStyle=orthogonalEdgeStyle;rounded=0;orthogonalLoop=1;jettySize=auto;html=1;endArrow=oval;endFill=0;" edge="1" parent="1" source="SfsohykQEMwazT2AkdBh-37">
          <mxGeometry relative="1" as="geometry">
            <mxPoint x="680" y="360" as="targetPoint" />
          </mxGeometry>
        </mxCell>
        <mxCell id="SfsohykQEMwazT2AkdBh-37" value="rechaza" style="rhombus;whiteSpace=wrap;html=1;" vertex="1" parent="1">
          <mxGeometry x="600" y="330" width="56" height="60" as="geometry" />
        </mxCell>
        <mxCell id="SfsohykQEMwazT2AkdBh-43" value="" style="edgeStyle=orthogonalEdgeStyle;rounded=0;orthogonalLoop=1;jettySize=auto;html=1;" edge="1" parent="1" source="SfsohykQEMwazT2AkdBh-40" target="SfsohykQEMwazT2AkdBh-42">
          <mxGeometry relative="1" as="geometry" />
        </mxCell>
        <mxCell id="SfsohykQEMwazT2AkdBh-40" value="posee" style="rhombus;whiteSpace=wrap;html=1;" vertex="1" parent="1">
          <mxGeometry x="710" y="200" width="60" height="60" as="geometry" />
        </mxCell>
        <mxCell id="SfsohykQEMwazT2AkdBh-42" value="Especialidad" style="whiteSpace=wrap;html=1;" vertex="1" parent="1">
          <mxGeometry x="680" y="40" width="120" height="60" as="geometry" />
        </mxCell>
        <mxCell id="SfsohykQEMwazT2AkdBh-44" value="(T,E)" style="text;html=1;align=center;verticalAlign=middle;resizable=0;points=[];autosize=1;strokeColor=none;fillColor=none;" vertex="1" parent="1">
          <mxGeometry x="375" y="148" width="50" height="30" as="geometry" />
        </mxCell>
        <mxCell id="SfsohykQEMwazT2AkdBh-45" value="(1,N)" style="text;html=1;align=center;verticalAlign=middle;resizable=0;points=[];autosize=1;strokeColor=none;fillColor=none;" vertex="1" parent="1">
          <mxGeometry x="105" y="248" width="50" height="30" as="geometry" />
        </mxCell>
        <mxCell id="SfsohykQEMwazT2AkdBh-46" value="(1,N)" style="text;html=1;align=center;verticalAlign=middle;resizable=0;points=[];autosize=1;strokeColor=none;fillColor=none;" vertex="1" parent="1">
          <mxGeometry x="81" y="517" width="50" height="30" as="geometry" />
        </mxCell>
        <mxCell id="SfsohykQEMwazT2AkdBh-47" style="edgeStyle=orthogonalEdgeStyle;rounded=0;orthogonalLoop=1;jettySize=auto;html=1;endArrow=oval;endFill=0;" edge="1" parent="1">
          <mxGeometry relative="1" as="geometry">
            <mxPoint x="-20" y="245" as="targetPoint" />
            <mxPoint x="-20" y="230" as="sourcePoint" />
            <Array as="points">
              <mxPoint x="-20" y="245" />
            </Array>
          </mxGeometry>
        </mxCell>
        <mxCell id="SfsohykQEMwazT2AkdBh-48" value="Desde" style="text;html=1;align=center;verticalAlign=middle;resizable=0;points=[];autosize=1;strokeColor=none;fillColor=none;" vertex="1" parent="1">
          <mxGeometry x="-50" y="248" width="60" height="30" as="geometry" />
        </mxCell>
        <mxCell id="SfsohykQEMwazT2AkdBh-50" value="Hasta(0,1)" style="text;html=1;align=center;verticalAlign=middle;resizable=0;points=[];autosize=1;strokeColor=none;fillColor=none;" vertex="1" parent="1">
          <mxGeometry x="-20" y="138" width="80" height="30" as="geometry" />
        </mxCell>
        <mxCell id="SfsohykQEMwazT2AkdBh-121" style="edgeStyle=orthogonalEdgeStyle;rounded=0;orthogonalLoop=1;jettySize=auto;html=1;endArrow=oval;endFill=1;curved=1;" edge="1" parent="1">
          <mxGeometry relative="1" as="geometry">
            <mxPoint x="393.5" y="430" as="targetPoint" />
            <mxPoint x="220" y="310" as="sourcePoint" />
            <Array as="points">
              <mxPoint x="220" y="290" />
              <mxPoint x="350" y="290" />
              <mxPoint x="350" y="430" />
            </Array>
          </mxGeometry>
        </mxCell>
        <mxCell id="SfsohykQEMwazT2AkdBh-51" value="(0,N)" style="text;html=1;align=center;verticalAlign=middle;resizable=0;points=[];autosize=1;strokeColor=none;fillColor=none;" vertex="1" parent="1">
          <mxGeometry x="225" y="258" width="50" height="30" as="geometry" />
        </mxCell>
        <mxCell id="SfsohykQEMwazT2AkdBh-52" value="(1,1)" style="text;html=1;align=center;verticalAlign=middle;resizable=0;points=[];autosize=1;strokeColor=none;fillColor=none;" vertex="1" parent="1">
          <mxGeometry x="270" y="440" width="50" height="30" as="geometry" />
        </mxCell>
        <mxCell id="SfsohykQEMwazT2AkdBh-53" value="(0,N)" style="text;html=1;align=center;verticalAlign=middle;resizable=0;points=[];autosize=1;strokeColor=none;fillColor=none;" vertex="1" parent="1">
          <mxGeometry x="450" y="258" width="50" height="30" as="geometry" />
        </mxCell>
        <mxCell id="SfsohykQEMwazT2AkdBh-54" value="(1,1)" style="text;html=1;align=center;verticalAlign=middle;resizable=0;points=[];autosize=1;strokeColor=none;fillColor=none;" vertex="1" parent="1">
          <mxGeometry x="411" y="412" width="50" height="30" as="geometry" />
        </mxCell>
        <mxCell id="SfsohykQEMwazT2AkdBh-55" value="(0,N)" style="text;html=1;align=center;verticalAlign=middle;resizable=0;points=[];autosize=1;strokeColor=none;fillColor=none;" vertex="1" parent="1">
          <mxGeometry x="530" y="270" width="50" height="30" as="geometry" />
        </mxCell>
        <mxCell id="SfsohykQEMwazT2AkdBh-56" value="(0,1)" style="text;html=1;align=center;verticalAlign=middle;resizable=0;points=[];autosize=1;strokeColor=none;fillColor=none;" vertex="1" parent="1">
          <mxGeometry x="475" y="440" width="50" height="30" as="geometry" />
        </mxCell>
        <mxCell id="SfsohykQEMwazT2AkdBh-57" value="(0,N)" style="text;html=1;align=center;verticalAlign=middle;resizable=0;points=[];autosize=1;strokeColor=none;fillColor=none;" vertex="1" parent="1">
          <mxGeometry x="575" y="258" width="50" height="30" as="geometry" />
        </mxCell>
        <mxCell id="SfsohykQEMwazT2AkdBh-58" value="(0,1)" style="text;html=1;align=center;verticalAlign=middle;resizable=0;points=[];autosize=1;strokeColor=none;fillColor=none;" vertex="1" parent="1">
          <mxGeometry x="455" y="488" width="50" height="30" as="geometry" />
        </mxCell>
        <mxCell id="SfsohykQEMwazT2AkdBh-59" value="(1,N)" style="text;html=1;align=center;verticalAlign=middle;resizable=0;points=[];autosize=1;strokeColor=none;fillColor=none;" vertex="1" parent="1">
          <mxGeometry x="600" y="200" width="50" height="30" as="geometry" />
        </mxCell>
        <mxCell id="SfsohykQEMwazT2AkdBh-60" value="(1,N)" style="text;html=1;align=center;verticalAlign=middle;resizable=0;points=[];autosize=1;strokeColor=none;fillColor=none;" vertex="1" parent="1">
          <mxGeometry x="675" y="108" width="50" height="30" as="geometry" />
        </mxCell>
        <mxCell id="SfsohykQEMwazT2AkdBh-61" value="(1,1)" style="text;html=1;align=center;verticalAlign=middle;resizable=0;points=[];autosize=1;strokeColor=none;fillColor=none;" vertex="1" parent="1">
          <mxGeometry x="295" y="498" width="50" height="30" as="geometry" />
        </mxCell>
        <mxCell id="SfsohykQEMwazT2AkdBh-62" value="(0,N)" style="text;html=1;align=center;verticalAlign=middle;resizable=0;points=[];autosize=1;strokeColor=none;fillColor=none;" vertex="1" parent="1">
          <mxGeometry x="260" y="580" width="50" height="30" as="geometry" />
        </mxCell>
        <mxCell id="SfsohykQEMwazT2AkdBh-64" value="estado" style="text;html=1;align=center;verticalAlign=middle;resizable=0;points=[];autosize=1;strokeColor=none;fillColor=none;" vertex="1" parent="1">
          <mxGeometry x="160" y="658" width="60" height="30" as="geometry" />
        </mxCell>
        <mxCell id="SfsohykQEMwazT2AkdBh-65" value="(1,1)" style="text;html=1;align=center;verticalAlign=middle;resizable=0;points=[];autosize=1;strokeColor=none;fillColor=none;" vertex="1" parent="1">
          <mxGeometry x="370" y="498" width="50" height="30" as="geometry" />
        </mxCell>
        <mxCell id="SfsohykQEMwazT2AkdBh-66" value="(0,N)" style="text;html=1;align=center;verticalAlign=middle;resizable=0;points=[];autosize=1;strokeColor=none;fillColor=none;" vertex="1" parent="1">
          <mxGeometry x="370" y="700" width="50" height="30" as="geometry" />
        </mxCell>
        <mxCell id="SfsohykQEMwazT2AkdBh-67" value="(1,1)" style="text;html=1;align=center;verticalAlign=middle;resizable=0;points=[];autosize=1;strokeColor=none;fillColor=none;" vertex="1" parent="1">
          <mxGeometry x="425" y="518" width="50" height="30" as="geometry" />
        </mxCell>
        <mxCell id="SfsohykQEMwazT2AkdBh-68" value="(1,N)" style="text;html=1;align=center;verticalAlign=middle;resizable=0;points=[];autosize=1;strokeColor=none;fillColor=none;" vertex="1" parent="1">
          <mxGeometry x="460" y="580" width="50" height="30" as="geometry" />
        </mxCell>
        <mxCell id="SfsohykQEMwazT2AkdBh-69" value="" style="shape=waypoint;sketch=0;size=6;pointerEvents=1;points=[];fillColor=none;resizable=0;rotatable=0;perimeter=centerPerimeter;snapToPoint=1;" vertex="1" parent="1">
          <mxGeometry x="291" y="80" width="20" height="20" as="geometry" />
        </mxCell>
        <mxCell id="SfsohykQEMwazT2AkdBh-70" style="edgeStyle=orthogonalEdgeStyle;rounded=0;orthogonalLoop=1;jettySize=auto;html=1;entryX=0;entryY=0.323;entryDx=0;entryDy=0;entryPerimeter=0;endArrow=none;endFill=0;" edge="1" source="SfsohykQEMwazT2AkdBh-69" parent="1">
          <mxGeometry relative="1" as="geometry">
            <mxPoint x="321" y="89" as="targetPoint" />
          </mxGeometry>
        </mxCell>
        <mxCell id="SfsohykQEMwazT2AkdBh-71" value="DNI" style="text;html=1;align=center;verticalAlign=middle;resizable=0;points=[];autosize=1;strokeColor=none;fillColor=none;" vertex="1" parent="1">
          <mxGeometry x="262" y="74" width="40" height="30" as="geometry" />
        </mxCell>
        <mxCell id="SfsohykQEMwazT2AkdBh-72" value="CUIL" style="text;html=1;align=center;verticalAlign=middle;resizable=0;points=[];autosize=1;strokeColor=none;fillColor=none;" vertex="1" parent="1">
          <mxGeometry x="296" y="195" width="50" height="30" as="geometry" />
        </mxCell>
        <mxCell id="SfsohykQEMwazT2AkdBh-75" value="nombre o&lt;div&gt;apellido o&lt;/div&gt;" style="text;html=1;align=right;verticalAlign=middle;resizable=0;points=[];autosize=1;strokeColor=none;fillColor=none;" vertex="1" parent="1">
          <mxGeometry x="242" y="99" width="70" height="40" as="geometry" />
        </mxCell>
        <mxCell id="SfsohykQEMwazT2AkdBh-76" value="" style="shape=waypoint;sketch=0;size=6;pointerEvents=1;points=[];fillColor=none;resizable=0;rotatable=0;perimeter=centerPerimeter;snapToPoint=1;" vertex="1" parent="1">
          <mxGeometry x="290" y="200" width="20" height="20" as="geometry" />
        </mxCell>
        <mxCell id="SfsohykQEMwazT2AkdBh-77" style="edgeStyle=orthogonalEdgeStyle;rounded=0;orthogonalLoop=1;jettySize=auto;html=1;entryX=0.217;entryY=0.9;entryDx=0;entryDy=0;entryPerimeter=0;endArrow=none;endFill=0;" edge="1" target="SfsohykQEMwazT2AkdBh-76" parent="1">
          <mxGeometry relative="1" as="geometry">
            <mxPoint x="280" y="210" as="sourcePoint" />
            <Array as="points">
              <mxPoint x="290" y="210" />
              <mxPoint x="290" y="210" />
            </Array>
          </mxGeometry>
        </mxCell>
        <mxCell id="SfsohykQEMwazT2AkdBh-78" value="" style="shape=waypoint;sketch=0;size=6;pointerEvents=1;points=[];fillColor=none;resizable=0;rotatable=0;perimeter=centerPerimeter;snapToPoint=1;" vertex="1" parent="1">
          <mxGeometry x="450" y="232" width="20" height="20" as="geometry" />
        </mxCell>
        <mxCell id="SfsohykQEMwazT2AkdBh-79" style="edgeStyle=orthogonalEdgeStyle;rounded=0;orthogonalLoop=1;jettySize=auto;html=1;entryX=0;entryY=0.323;entryDx=0;entryDy=0;entryPerimeter=0;endArrow=none;endFill=0;" edge="1" source="SfsohykQEMwazT2AkdBh-78" parent="1">
          <mxGeometry relative="1" as="geometry">
            <mxPoint x="480" y="241" as="targetPoint" />
          </mxGeometry>
        </mxCell>
        <mxCell id="SfsohykQEMwazT2AkdBh-81" value="matricula" style="text;html=1;align=center;verticalAlign=middle;resizable=0;points=[];autosize=1;strokeColor=none;fillColor=none;" vertex="1" parent="1">
          <mxGeometry x="394" y="226" width="70" height="30" as="geometry" />
        </mxCell>
        <mxCell id="SfsohykQEMwazT2AkdBh-82" value="o fechaNac" style="text;html=1;align=left;verticalAlign=middle;resizable=0;points=[];autosize=1;strokeColor=none;fillColor=none;" vertex="1" parent="1">
          <mxGeometry x="279" y="215" width="80" height="30" as="geometry" />
        </mxCell>
        <mxCell id="SfsohykQEMwazT2AkdBh-83" value="o tel (1,N)" style="text;html=1;align=center;verticalAlign=middle;resizable=0;points=[];autosize=1;strokeColor=none;fillColor=none;" vertex="1" parent="1">
          <mxGeometry x="430" y="108" width="80" height="30" as="geometry" />
        </mxCell>
        <mxCell id="SfsohykQEMwazT2AkdBh-84" value="" style="shape=waypoint;sketch=0;size=6;pointerEvents=1;points=[];fillColor=none;resizable=0;rotatable=0;perimeter=centerPerimeter;snapToPoint=1;" vertex="1" parent="1">
          <mxGeometry x="-71" y="454" width="20" height="20" as="geometry" />
        </mxCell>
        <mxCell id="SfsohykQEMwazT2AkdBh-85" style="edgeStyle=orthogonalEdgeStyle;rounded=0;orthogonalLoop=1;jettySize=auto;html=1;entryX=0;entryY=0.323;entryDx=0;entryDy=0;entryPerimeter=0;endArrow=none;endFill=0;" edge="1" source="SfsohykQEMwazT2AkdBh-84" parent="1">
          <mxGeometry relative="1" as="geometry">
            <mxPoint x="-41" y="463" as="targetPoint" />
          </mxGeometry>
        </mxCell>
        <mxCell id="SfsohykQEMwazT2AkdBh-86" value="CUIL" style="text;html=1;align=center;verticalAlign=middle;resizable=0;points=[];autosize=1;strokeColor=none;fillColor=none;" vertex="1" parent="1">
          <mxGeometry x="-108" y="449" width="50" height="30" as="geometry" />
        </mxCell>
        <mxCell id="SfsohykQEMwazT2AkdBh-87" value="razonSoc o" style="text;html=1;align=center;verticalAlign=middle;resizable=0;points=[];autosize=1;strokeColor=none;fillColor=none;" vertex="1" parent="1">
          <mxGeometry x="-119" y="481" width="80" height="30" as="geometry" />
        </mxCell>
        <mxCell id="SfsohykQEMwazT2AkdBh-88" value="Direccion" style="ellipse;whiteSpace=wrap;html=1;" vertex="1" parent="1">
          <mxGeometry x="-80" y="350" width="70" height="50" as="geometry" />
        </mxCell>
        <mxCell id="SfsohykQEMwazT2AkdBh-89" value="NÂ° o&lt;div&gt;Calle o&lt;/div&gt;&lt;div&gt;Piso (0,1) o&lt;/div&gt;&lt;div&gt;Depto (0,1) o&lt;/div&gt;" style="text;html=1;align=right;verticalAlign=middle;resizable=0;points=[];autosize=1;strokeColor=none;fillColor=none;" vertex="1" parent="1">
          <mxGeometry x="-175" y="341" width="90" height="70" as="geometry" />
        </mxCell>
        <mxCell id="SfsohykQEMwazT2AkdBh-92" value="fecha/hora" style="text;html=1;align=center;verticalAlign=middle;resizable=0;points=[];autosize=1;strokeColor=none;fillColor=none;" vertex="1" parent="1">
          <mxGeometry x="350" y="381" width="80" height="30" as="geometry" />
        </mxCell>
        <mxCell id="SfsohykQEMwazT2AkdBh-96" value="tipo" style="text;html=1;align=center;verticalAlign=middle;resizable=0;points=[];autosize=1;strokeColor=none;fillColor=none;" vertex="1" parent="1">
          <mxGeometry x="656" y="595" width="40" height="30" as="geometry" />
        </mxCell>
        <mxCell id="SfsohykQEMwazT2AkdBh-97" style="edgeStyle=orthogonalEdgeStyle;rounded=0;orthogonalLoop=1;jettySize=auto;html=1;endArrow=oval;endFill=0;" edge="1" parent="1">
          <mxGeometry relative="1" as="geometry">
            <mxPoint x="339.88" y="429" as="targetPoint" />
            <mxPoint x="339.88" y="440" as="sourcePoint" />
          </mxGeometry>
        </mxCell>
        <mxCell id="SfsohykQEMwazT2AkdBh-98" value="&lt;font style=&quot;font-size: 8px;&quot;&gt;dniF(0,1)&lt;/font&gt;" style="text;html=1;align=center;verticalAlign=middle;resizable=0;points=[];autosize=1;strokeColor=none;fillColor=none;rotation=60;" vertex="1" parent="1">
          <mxGeometry x="302" y="394" width="60" height="30" as="geometry" />
        </mxCell>
        <mxCell id="SfsohykQEMwazT2AkdBh-99" style="edgeStyle=orthogonalEdgeStyle;rounded=0;orthogonalLoop=1;jettySize=auto;html=1;endArrow=oval;endFill=0;" edge="1" parent="1">
          <mxGeometry relative="1" as="geometry">
            <mxPoint x="329" y="429" as="targetPoint" />
            <mxPoint x="329" y="440" as="sourcePoint" />
          </mxGeometry>
        </mxCell>
        <mxCell id="SfsohykQEMwazT2AkdBh-100" style="edgeStyle=orthogonalEdgeStyle;rounded=0;orthogonalLoop=1;jettySize=auto;html=1;endArrow=oval;endFill=0;" edge="1" parent="1">
          <mxGeometry relative="1" as="geometry">
            <mxPoint x="320" y="429" as="targetPoint" />
            <mxPoint x="320" y="440" as="sourcePoint" />
          </mxGeometry>
        </mxCell>
        <mxCell id="SfsohykQEMwazT2AkdBh-101" value="&lt;span style=&quot;font-size: 8px;&quot;&gt;fechaiR&lt;/span&gt;" style="text;html=1;align=center;verticalAlign=middle;resizable=0;points=[];autosize=1;strokeColor=none;fillColor=none;rotation=60;" vertex="1" parent="1">
          <mxGeometry x="295" y="394" width="50" height="30" as="geometry" />
        </mxCell>
        <mxCell id="SfsohykQEMwazT2AkdBh-103" value="&lt;font style=&quot;font-size: 8px;&quot;&gt;diasSolic&lt;/font&gt;" style="text;html=1;align=center;verticalAlign=middle;resizable=0;points=[];autosize=1;strokeColor=none;fillColor=none;rotation=60;" vertex="1" parent="1">
          <mxGeometry x="277" y="395" width="60" height="30" as="geometry" />
        </mxCell>
        <mxCell id="SfsohykQEMwazT2AkdBh-105" style="edgeStyle=orthogonalEdgeStyle;rounded=0;orthogonalLoop=1;jettySize=auto;html=1;endArrow=oval;endFill=0;" edge="1" parent="1">
          <mxGeometry relative="1" as="geometry">
            <mxPoint x="306.95" y="440" as="targetPoint" />
            <mxPoint x="321" y="440" as="sourcePoint" />
          </mxGeometry>
        </mxCell>
        <mxCell id="SfsohykQEMwazT2AkdBh-106" value="&lt;font style=&quot;font-size: 8px;&quot;&gt;certificado&lt;/font&gt;" style="text;html=1;align=center;verticalAlign=middle;resizable=0;points=[];autosize=1;strokeColor=none;fillColor=none;rotation=60;" vertex="1" parent="1">
          <mxGeometry x="265" y="404" width="60" height="30" as="geometry" />
        </mxCell>
        <mxCell id="SfsohykQEMwazT2AkdBh-107" value="" style="shape=waypoint;sketch=0;size=6;pointerEvents=1;points=[];fillColor=none;resizable=0;rotatable=0;perimeter=centerPerimeter;snapToPoint=1;" vertex="1" parent="1">
          <mxGeometry x="450" y="750" width="20" height="20" as="geometry" />
        </mxCell>
        <mxCell id="SfsohykQEMwazT2AkdBh-108" style="edgeStyle=orthogonalEdgeStyle;rounded=0;orthogonalLoop=1;jettySize=auto;html=1;entryX=0.217;entryY=0.9;entryDx=0;entryDy=0;entryPerimeter=0;endArrow=none;endFill=0;" edge="1" target="SfsohykQEMwazT2AkdBh-107" parent="1">
          <mxGeometry relative="1" as="geometry">
            <mxPoint x="440" y="760" as="sourcePoint" />
            <Array as="points">
              <mxPoint x="450" y="760" />
              <mxPoint x="450" y="760" />
            </Array>
          </mxGeometry>
        </mxCell>
        <mxCell id="SfsohykQEMwazT2AkdBh-109" value="&amp;nbsp; &amp;nbsp; &amp;nbsp; &amp;nbsp; codUnicoD&lt;div&gt;&lt;span style=&quot;background-color: initial;&quot;&gt;o nombre&lt;/span&gt;&lt;/div&gt;" style="text;html=1;align=left;verticalAlign=middle;resizable=0;points=[];autosize=1;strokeColor=none;fillColor=none;" vertex="1" parent="1">
          <mxGeometry x="444" y="748" width="110" height="40" as="geometry" />
        </mxCell>
        <mxCell id="SfsohykQEMwazT2AkdBh-110" style="edgeStyle=orthogonalEdgeStyle;rounded=0;orthogonalLoop=1;jettySize=auto;html=1;endArrow=oval;endFill=0;" edge="1" parent="1">
          <mxGeometry relative="1" as="geometry">
            <mxPoint x="560" y="465" as="targetPoint" />
            <mxPoint x="560" y="450" as="sourcePoint" />
            <Array as="points">
              <mxPoint x="560" y="465" />
            </Array>
          </mxGeometry>
        </mxCell>
        <mxCell id="SfsohykQEMwazT2AkdBh-111" value="diasOtorgados" style="text;html=1;align=center;verticalAlign=middle;resizable=0;points=[];autosize=1;strokeColor=none;fillColor=none;" vertex="1" parent="1">
          <mxGeometry x="500" y="458" width="100" height="30" as="geometry" />
        </mxCell>
        <mxCell id="SfsohykQEMwazT2AkdBh-114" value="motivo" style="text;html=1;align=center;verticalAlign=middle;resizable=0;points=[];autosize=1;strokeColor=none;fillColor=none;" vertex="1" parent="1">
          <mxGeometry x="673" y="344" width="60" height="30" as="geometry" />
        </mxCell>
        <mxCell id="SfsohykQEMwazT2AkdBh-117" value="" style="shape=waypoint;sketch=0;size=6;pointerEvents=1;points=[];fillColor=none;resizable=0;rotatable=0;perimeter=centerPerimeter;snapToPoint=1;" vertex="1" parent="1">
          <mxGeometry x="651" y="40" width="20" height="20" as="geometry" />
        </mxCell>
        <mxCell id="SfsohykQEMwazT2AkdBh-118" style="edgeStyle=orthogonalEdgeStyle;rounded=0;orthogonalLoop=1;jettySize=auto;html=1;entryX=0;entryY=0.323;entryDx=0;entryDy=0;entryPerimeter=0;endArrow=none;endFill=0;" edge="1" source="SfsohykQEMwazT2AkdBh-117" parent="1">
          <mxGeometry relative="1" as="geometry">
            <mxPoint x="681" y="49" as="targetPoint" />
          </mxGeometry>
        </mxCell>
        <mxCell id="SfsohykQEMwazT2AkdBh-119" value="codigoU" style="text;html=1;align=center;verticalAlign=middle;resizable=0;points=[];autosize=1;strokeColor=none;fillColor=none;" vertex="1" parent="1">
          <mxGeometry x="597" y="33" width="70" height="30" as="geometry" />
        </mxCell>
        <mxCell id="SfsohykQEMwazT2AkdBh-120" value="nombre o" style="text;html=1;align=center;verticalAlign=middle;resizable=0;points=[];autosize=1;strokeColor=none;fillColor=none;" vertex="1" parent="1">
          <mxGeometry x="613" y="54" width="70" height="30" as="geometry" />
        </mxCell>
      </root>
    </mxGraphModel>
  </diagram>
</mxfile>
